<?xml version="1.0" encoding="UTF-8"?>
<svg id="logo" xmlns="http://www.w3.org/2000/svg" viewBox="0 0 47.52 47.52">
  <defs>
    <style>
      .cls-1 {
        fill: #2f1dff;
      }
    </style>
  </defs>
  <path class="cls-1" d="M18.43,43.07c2.44,2.12,6.61,4.41,6.61,4.41-.42,.03-.86,.04-1.29,.04C10.64,47.52,0,36.88,0,23.76,0,16.01,3.71,9.12,9.46,4.79c6.12,5.01,8.68,10.09,9.4,17.71,.39,4.22-.77,9.93-4.71,15.35,0,0,1.74,3.01,4.28,5.21v.01Z"/>
  <path class="cls-1" d="M47.52,23.76c0,10.06-6.24,18.65-15.07,22.12-.1-.03-.21-.06-.32-.1-8.53-2.55-12.22-8.69-12.22-8.69,0,0,2.46-4.24,3.02-6.78,.43-2,1.1-5.43,.21-11.62-.89-6.18-4.96-12.2-10.17-16.1,3.23-1.66,6.9-2.59,10.78-2.59,13.12,0,23.76,10.64,23.76,23.76h.01Z"/>
</svg>