<?xml version="1.0" encoding="UTF-8"?>
<svg id="typoImg" data-name="typoImg" xmlns="http://www.w3.org/2000/svg" viewBox="0 0 400 100">
  <defs>
    <style>
      .cls-1 {
        fill: none;
      }

      .cls-2 {
        fill: #fff;
      }

      .cls-3 {
        fill: #d3161d;
      }

      .cls-4 {
        fill: #1592cf;
      }

      .cls-5 {
        fill: #404040;
      }
    </style>
  </defs>
  <path class="cls-3" d="M85.7,76.04c0-3.73,2.79-7.33,8.48-7.33,1.54,0,3.92,.52,4.44,.52,.21,0,.42-.02,.6-.02,1.15,0,1.69,.44,1.69,1.23,0,.25-.06,.56-.17,.88-.37,1.08-.94,2.06-1.08,3.25-.15,1.1-.71,1.65-1.37,1.65-.23,0-.48-.06-.73-.21-.6-.33-1.23-.77-2.02-.77-2.27,.02-3.62,1.73-3.62,3.48,0,1.46,.94,2.94,3.1,3.56,1.04,.29,1.54,.77,1.54,1.19,0,.46-.6,.85-1.73,.85-.12,0-.27,0-.42-.02-5.77-.44-8.71-4.42-8.71-8.25Z"/>
  <path class="cls-4" d="M113.14,80.48c-.19,.35-.29,.81-.29,1.25,0,.6,.38,1.04,.38,1.56,0,.38-.25,.71-.79,.71-1.19,0-1.94-.88-1.94-2.04,0-.5,.17-1.15,.17-1.62,0-1.12-.54-1.75-1.25-1.75-.65,0-1.42,.52-2,1.65-.06,.56-.1,1.06-.1,1.44,0,.31,.27,.69,.27,1.06,0,.83-1.21,1.1-2.23,1.1-.65,0-1.35-.15-1.35-.75,0-.35,.25-.81,.31-1.27,.04-.33,.06-.79,.06-1.31,0-3.25-.83-9.5-1.29-10.23-.25-.4-.4-.85-.4-1.27,0-.65,.35-1.19,1.21-1.19,.79,0,1.52,.12,2.15,.12s1.25-.02,2.19-.02c1.17,0,2,.04,2,1.08,0,.56-.25,1.19-.58,1.52-.21,.23-.67,1.81-1.12,3.75,.81-.5,1.73-.75,2.54-.75,1.71,0,3.19,1.1,3.19,3.25,0,1-.31,2.25-1.1,3.71Z"/>
  <path class="cls-3" d="M128.55,76.42c0,1.9-1.48,3.69-4.31,3.69-.54,0-1.25-.19-1.83-.19-.19,0-.25,.08-.25,.29,0,.58,.69,1.21,2.08,1.21,.44,0,1.04-.15,1.52-.15,.69,0,1.06,.33,1.06,.73,0,1.1-2.46,1.62-4.02,1.62-4.23,0-6.39-3-6.39-5.96s2.04-5.71,6.17-5.71,5.98,2.29,5.98,4.46Zm-4.77,.94c0-.58-.52-1.06-1.27-1.06-.62,0-.83,.42-.83,1.06,0,.56,.21,1.06,.79,1.06h.04c.85,0,1.27-.52,1.27-1.06Z"/>
  <path class="cls-4" d="M130.67,78.12c0-3.87,2.85-5.58,5.75-5.58,2.37,0,4.79,1.15,5.71,3.19,.73,1.65,.92,4.6,1.52,6.31,.08,.21,.12,.42,.12,.6,0,.52-.29,.94-.88,.94-1.31,0-2.06-1.48-2.35-1.98-.1-.15-.19-.23-.27-.23-.1,0-.19,.12-.29,.31-.54,1.15-2.1,1.81-3.81,1.81-2.6,0-5.5-1.56-5.5-5.37Zm4.92,1.29c0,.88,1.04,1.31,1.73,1.31,.83,0,1.62-.4,1.62-1.15,0-.58-.44-1.77-1.81-1.77-.92,0-1.54,.79-1.54,1.6Z"/>
  <path class="cls-3" d="M157.69,75.02c0,.23-.1,.52-.29,.81s-.21,.81-.21,1.31v.27c-.02,.96-.67,1.35-1.52,1.35-.42,0-1.35-.04-2.46-.06-.02,.23-.02,.44-.02,.67,0,1.15,.19,2.19,.77,2.69,.5,.44,.73,.92,.73,1.27s-.23,.58-.6,.58c-.12,0-.25-.04-.4-.08-2.29-.79-3.58-2.25-4.02-5.21-.5-.02-.98-.02-1.38-.02-.48,0-.73,.02-1.02,.02-.71,0-1.27-.33-1.27-1.1,0-.19,.06-.42,.06-.6,0-.6-.56-1.29-.56-1.98,0-.58,.48-.96,1.27-.96,.1,0,.23,0,.33,.02,.65,.06,1.4,.12,2.19,.17-.15-1.31-.35-2.42-.62-2.83-.17-.25-.25-.54-.25-.81,0-.56,.38-1.04,1.08-1.04,.19,0,.38,.04,.6,.1,.62,.19,1.77,.29,2.96,.29,.5,0,1-.06,1.48-.06,.58,0,.98,.58,.98,1.23,0,.33-.1,.71-.38,1-.48,.52-1.1,1.02-1.27,2.08,0,.02,0,.06-.02,.08,1.1-.02,1.94-.08,2.54-.08,.79,0,1.29,.33,1.29,.9Z"/>
  <path class="cls-4" d="M175.19,71.08c0,.08-.02,.19-.04,.29-.27,.94-1.38,2.52-1.65,3.44-.23,.77-.69,1.37-1.31,1.37-.19,0-.4-.06-.62-.19-1.21-.71-1.9-1.88-3.52-1.88-1.23,0-2,.83-2,1.58,0,.6,.48,1.15,1.58,1.21,3.56,.21,5.08,1.69,5.08,3.23,0,1.81-2.12,3.69-5.54,3.69-1.15,0-3.79-.29-3.79-1.31,0-.38,.4-.67,1.15-.67,.29,0,.56,.04,.9,.04,.81,0,1.98-.23,1.98-1.17,0-2.17-7.39-.21-7.39-6.04,0-3.69,3.4-5.96,7.35-5.96,1.15,0,2.33,.19,3.5,.58,.73,.25,1.6,.58,2.33,.58,.96,0,2,.4,2,1.19Z"/>
  <path class="cls-3" d="M187.54,80.48c-.19,.35-.29,.81-.29,1.25,0,.6,.38,1.04,.38,1.56,0,.38-.25,.71-.79,.71-1.19,0-1.94-.88-1.94-2.04,0-.5,.17-1.15,.17-1.62,0-1.12-.54-1.75-1.25-1.75-.65,0-1.42,.52-2,1.65-.06,.56-.1,1.06-.1,1.44,0,.31,.27,.69,.27,1.06,0,.83-1.21,1.1-2.23,1.1-.65,0-1.35-.15-1.35-.75,0-.35,.25-.81,.31-1.27,.04-.33,.06-.79,.06-1.31,0-3.25-.83-9.5-1.29-10.23-.25-.4-.4-.85-.4-1.27,0-.65,.35-1.19,1.21-1.19,.79,0,1.52,.12,2.15,.12s1.25-.02,2.19-.02c1.17,0,2,.04,2,1.08,0,.56-.25,1.19-.58,1.52-.21,.23-.67,1.81-1.12,3.75,.81-.5,1.73-.75,2.54-.75,1.71,0,3.19,1.1,3.19,3.25,0,1-.31,2.25-1.1,3.71Z"/>
  <path class="cls-4" d="M202.95,76.42c0,1.9-1.48,3.69-4.31,3.69-.54,0-1.25-.19-1.83-.19-.19,0-.25,.08-.25,.29,0,.58,.69,1.21,2.08,1.21,.44,0,1.04-.15,1.52-.15,.69,0,1.06,.33,1.06,.73,0,1.1-2.46,1.62-4.02,1.62-4.23,0-6.39-3-6.39-5.96s2.04-5.71,6.17-5.71,5.98,2.29,5.98,4.46Zm-4.77,.94c0-.58-.52-1.06-1.27-1.06-.62,0-.83,.42-.83,1.06,0,.56,.21,1.06,.79,1.06h.04c.85,0,1.27-.52,1.27-1.06Z"/>
  <path class="cls-3" d="M217.03,76.42c0,1.9-1.48,3.69-4.31,3.69-.54,0-1.25-.19-1.83-.19-.19,0-.25,.08-.25,.29,0,.58,.69,1.21,2.08,1.21,.44,0,1.04-.15,1.52-.15,.69,0,1.06,.33,1.06,.73,0,1.1-2.46,1.62-4.02,1.62-4.23,0-6.39-3-6.39-5.96s2.04-5.71,6.17-5.71,5.98,2.29,5.98,4.46Zm-4.77,.94c0-.58-.52-1.06-1.27-1.06-.62,0-.83,.42-.83,1.06,0,.56,.21,1.06,.79,1.06h.04c.85,0,1.27-.52,1.27-1.06Z"/>
  <path class="cls-4" d="M231.11,76.42c0,1.9-1.48,3.69-4.31,3.69-.54,0-1.25-.19-1.83-.19-.19,0-.25,.08-.25,.29,0,.58,.69,1.21,2.08,1.21,.44,0,1.04-.15,1.52-.15,.69,0,1.06,.33,1.06,.73,0,1.1-2.46,1.62-4.02,1.62-4.23,0-6.39-3-6.39-5.96s2.04-5.71,6.17-5.71,5.98,2.29,5.98,4.46Zm-4.77,.94c0-.58-.52-1.06-1.27-1.06-.62,0-.83,.42-.83,1.06,0,.56,.21,1.06,.79,1.06h.04c.85,0,1.27-.52,1.27-1.06Z"/>
  <path class="cls-3" d="M245.19,75.02c0,.23-.1,.52-.29,.81s-.21,.81-.21,1.31v.27c-.02,.96-.67,1.35-1.52,1.35-.42,0-1.35-.04-2.46-.06-.02,.23-.02,.44-.02,.67,0,1.15,.19,2.19,.77,2.69,.5,.44,.73,.92,.73,1.27s-.23,.58-.6,.58c-.12,0-.25-.04-.4-.08-2.29-.79-3.58-2.25-4.02-5.21-.5-.02-.98-.02-1.37-.02-.48,0-.73,.02-1.02,.02-.71,0-1.27-.33-1.27-1.1,0-.19,.06-.42,.06-.6,0-.6-.56-1.29-.56-1.98,0-.58,.48-.96,1.27-.96,.1,0,.23,0,.33,.02,.65,.06,1.4,.12,2.19,.17-.15-1.31-.35-2.42-.62-2.83-.17-.25-.25-.54-.25-.81,0-.56,.37-1.04,1.08-1.04,.19,0,.37,.04,.6,.1,.62,.19,1.77,.29,2.96,.29,.5,0,1-.06,1.48-.06,.58,0,.98,.58,.98,1.23,0,.33-.1,.71-.37,1-.48,.52-1.1,1.02-1.27,2.08,0,.02,0,.06-.02,.08,1.1-.02,1.94-.08,2.54-.08,.79,0,1.29,.33,1.29,.9Z"/>
  <path class="cls-3" d="M250.38,84.06c-1.46,0-2.27-.65-2.31-2.04,.04-1.4,.85-2.04,2.31-2.04s2.27,.65,2.31,2.04c-.04,1.4-.85,2.04-2.31,2.04Z"/>
  <path class="cls-4" d="M260.67,79.67c0,.96,.77,1.98,2.77,2.23,.88,.1,1.29,.5,1.29,.9,0,.48-.6,.98-1.73,.98-5.31-.04-7.62-3.02-7.62-5.96s2.21-5.67,6.02-5.67c.71,0,1.48,.1,2.29,.31,.54,.12,1.02,.25,1.42,.25,.42,0,.88-.21,1.23-.21,.92,0,1.44,.67,1.44,1.33,0,1-.9,3.04-1.04,4.06-.1,.81-.73,1.21-1.31,1.21-1.19,0-1.58-1.31-2.89-1.31-1.08,0-1.85,.92-1.85,1.87Z"/>
  <path class="cls-3" d="M281.96,76.73c0,4.89-2.96,7-6.17,7-2.64,0-5.98-1.96-5.98-6.83,0-4.6,3.69-5.44,6.04-5.44,3.25,0,6.1,1.23,6.1,5.27Zm-4.1,2.08c0-.83-.44-1.5-1.83-1.5s-1.88,.71-1.88,1.62c0,1.52,.94,2.44,1.88,2.44,1.29,0,1.83-1.17,1.83-2.56Z"/>
  <path class="cls-4" d="M301.81,75.17c0,.21-.04,.42-.15,.62-1.23,2.46-2.15,5.14-2.23,6.62-.04,.94-.42,1.46-.88,1.46-1.62,0-1.69-4.06-1.75-5.02-.02-.25-.17-.4-.31-.4s-.31,.15-.38,.46c-.25,1.12-.67,3.67-2.08,3.67-.42,0-.83-.19-1.08-.52-.44-.6-1.27-2.71-1.48-3.15-.08-.17-.17-.23-.27-.23-.75,0-.65,2.6-.98,3.52-.31,.85-.92,1.4-1.44,1.4-.4,0-.73-.31-.83-1.04-.19-1.46-1.67-5.42-2.5-7.56-.42-1.08-1.54-1.35-1.54-2.56,0-.46,.27-.85,1.08-.85s1.48,.23,2.54,.23c.6,0,1.29-.15,1.96-.15,.58,0,1.33,.23,1.33,.77,0,.15-.06,.29-.17,.48-.21,.33-.29,.71-.29,1.35,0,.27,.02,.56,.21,.56,.1,0,.21-.08,.27-.27,.19-.54,.58-2.19,1.96-2.19,1.65,0,2.37,.81,2.6,1.67,.04,.15,.12,.21,.21,.21,.12,0,.27-.1,.35-.25,.15-.23,1.48-1.67,2.67-1.67,1.35,0,3.17,1.56,3.17,2.83Z"/>
  <path class="cls-4" d="M44.85,35.94c-.3,1.44-.87,3.13-1.13,4.66-.3,1.44-.48,2.57-2.35,2.57-.39,0-.87-.04-1.39-.13-1.09-.17-3.35-.26-6.05-.26-1.96,5.01-5.4,9.06-11.45,11.41-1.04,.39-3.22,1-3.22-.3,0-.57,.48-1.39,1.52-2.44,2.57-2.53,3.96-5.4,4.61-8.49-2.92,.09-5.57,.22-7.23,.39-2.39,.17-4.92,.44-5.18-2.22-.17-2-.3-3.31-.74-4.18-.91-2.05-.61-3.66,2.22-3.66,1.96,0,3.92,.22,6.79,.22,1.39,0,2.87,0,4.4-.04-.09-1.13-.26-2.26-.39-3.4-2.87,.7-5.83,1.18-8.58,1.35-2.74,.22-2.18-1.74-.13-2.57,5.48-2.13,8.97-5.09,9.79-6.27,.44-.61,1.18-1.61,1.31-2.79,.17-1.31,2.09-1.44,3.48-.91,2.39,.91,7.4,1.57,8.71,1.74,1.65,.22,3.13,1.96,1.61,2.79-.83,.39-1.61,.83-2.39,1.44-.57,.44-1.48,1-2.7,1.57-.04,2.22-.13,4.48-.35,6.62,1.83-.09,3.53-.22,4.92-.35,3.09-.3,4.44,.61,3.92,3.27Z"/>
  <path class="cls-3" d="M50.2,39.59c0-1.52-.17-2.92-.39-3.66-.52-2.05-.48-4.14,2.22-4.14,.35,0,.74,.04,1.22,.13,3.13,.48,15.89,.7,20.63,.26,4.31-.48,2.26,4.66,2.26,7.75,0,1,.22,1.65,.22,2.52,0,1.87-1.7,2.66-3.27,2.44-5.27-.65-13.63-1.13-19.72-.26-1.83,.26-3.31-.61-3.31-2.66,0-.78,.13-1.61,.13-2.39Z"/>
  <path class="cls-4" d="M95.04,25.92c-.52,.78-1,3.48-1.44,6.83,3.66,.3,7.79,.39,11.01-.3,2.09-.39,3.96-.04,3.96,1.83,0,.48-.09,1.04-.3,1.61-.48,1.31-1,3-1,4.83,0,1.96-1.04,2.7-3.05,2.13-.91-.22-2.61-.3-4.66-.3s-4.4,.09-6.79,.17c-.09,1.65-.13,3.27-.13,4.66s.04,2.7,.13,3.61c.09,.74,.87,1.52,.87,2.48,0,1.57-2.18,1.87-4.61,1.87-2.22,0-4.31-.17-4.31-1.96,0-.61,.22-1.44,.13-2.18-.52-5.83-3.05-24.38-3.83-25.69-.57-.91-.96-1.92-.96-2.66,0-2.57,4.35-1.57,6.53-1.57,1.74,0,3.57-.09,6.44-.09,3.79,0,3.48,2.44,2,4.7Z"/>
  <path class="cls-3" d="M112.8,27.1c-.57-2.05,.26-3.87,2.44-3.53,3.92,.57,10.84-.09,13.58-.44,2-.26,3.48,1.48,2.87,3.57-.39,1.48-.7,3.31-.87,4.92-.17,1.83-.74,2.7-2.26,2.52-2.26-.26-9.23-.3-11.67,.09-1.52,.22-3.22-.39-3.31-2.44-.09-2.18-.52-3.74-.78-4.7Zm1.74,14.8c-.17-1.09-.39-2.87-.57-3.57-.35-1.39,.09-2.57,1.7-2.44,3.4,.3,9.1,.44,12.45-.04,1.83-.26,2.31,1,1.92,2.74-.26,1-.35,2.05-.57,3.13-.22,1.31-.39,1.78-1.78,1.57-2.79-.3-8.4-.04-10.62,.22-1.35,.17-2.22,.17-2.52-1.61Zm29.47-17.2c1.61,0,1.65,3.53,1.65,5.09,0,16.89-14.02,22.9-15.11,24.34-.78,.96-1.52,1.44-2.22,1.44-.65,0-1.26-.35-1.87-1-2-2.13-4.22-3.57-6.36-4.96-.61-.44-.91-1.09-.91-1.74,0-.96,.61-1.87,1.79-2,11.1-1,19.24-7.97,21.29-18.46,.39-1.83,1.09-2.7,1.74-2.7Z"/>
  <path class="cls-4" d="M149.53,39.56c0-1.52-.17-2.92-.39-3.66-.52-2.05-.48-4.14,2.22-4.14,.35,0,.74,.04,1.22,.13,3.13,.48,15.89,.7,20.63,.26,4.31-.48,2.26,4.66,2.26,7.75,0,1,.22,1.65,.22,2.52,0,1.87-1.7,2.66-3.26,2.44-5.27-.65-13.63-1.13-19.72-.26-1.83,.26-3.31-.61-3.31-2.66,0-.78,.13-1.61,.13-2.39Z"/>
  <path class="cls-3" d="M194.94,25.79c-.52,.78-1,3.48-1.44,6.83,3.66,.3,7.79,.39,11.01-.3,2.09-.39,3.96-.04,3.96,1.83,0,.48-.09,1.04-.3,1.61-.48,1.31-1,3-1,4.83,0,1.96-1.04,2.7-3.05,2.13-.91-.22-2.61-.3-4.66-.3s-4.4,.09-6.79,.17c-.09,1.65-.13,3.27-.13,4.66s.04,2.7,.13,3.61c.09,.74,.87,1.52,.87,2.48,0,1.57-2.18,1.87-4.61,1.87-2.22,0-4.31-.17-4.31-1.96,0-.61,.22-1.44,.13-2.18-.52-5.83-3.05-24.38-3.83-25.69-.57-.91-.96-1.92-.96-2.66,0-2.57,4.35-1.57,6.53-1.57,1.74,0,3.57-.09,6.44-.09,3.79,0,3.48,2.44,2,4.7Z"/>
  <path class="cls-4" d="M225.97,26.59c-.52,.78-1,3.48-1.44,6.83,3.66,.3,7.79,.39,11.01-.3,2.09-.39,3.96-.04,3.96,1.83,0,.48-.09,1.04-.3,1.61-.48,1.31-1,3-1,4.83,0,1.96-1.04,2.7-3.05,2.13-.91-.22-2.61-.3-4.66-.3s-4.4,.09-6.79,.17c-.09,1.65-.13,3.27-.13,4.66s.04,2.7,.13,3.61c.09,.74,.87,1.52,.87,2.48,0,1.57-2.18,1.87-4.61,1.87-2.18,0-4.31-.17-4.31-1.96,0-.61,.22-1.44,.13-2.18-.52-5.83-3.05-24.38-3.83-25.69-.57-.91-.96-1.92-.96-2.66,0-2.57,4.35-1.57,6.53-1.57,1.74,0,3.57-.09,6.44-.09,3.79,0,3.48,2.44,2,4.7Z"/>
  <path class="cls-1" d="M230.59,29.64c-.04-1.18-.44-4.05-.57-5.14-.26-1.61,.09-2.13,1.26-2.13,.61,0,2.18,.04,2.92,.04,.65,0,1.04,.65,1,1.61-.09,1.65,0,3.13,.13,5.05,.09,1.35-.3,1.78-1.17,1.87-.74,.09-1.52,0-2.18,.04-.87,.09-1.39-.22-1.39-1.35Z"/>
  <path class="cls-1" d="M241.86,24.07c-.17,1.61-.17,3.61-.13,5.09,0,1.44-.48,1.83-1.31,1.74-.96-.09-1.39,0-2.05,0-.87,0-1.48-.52-1.48-1.65,.04-1.35-.09-3.74-.26-5.05-.22-1.48,.04-1.96,1.26-1.87,1.09,.09,1.83,.09,3.09,.04,.91-.04,.96,.74,.87,1.7Z"/>
  <path class="cls-3" d="M244.12,34.06c-.96-3.13,2.44-2.18,4.7-2.18,.65,0,1.31-.04,1.92-.04,1.22,0,.96,2,.96,3.18,0,2,.39,4.44,.61,6.53,.17,2.09-.52,2.09-1.96,2.09-1.09,0-2.44,.17-3.35,.17-1.13,0-1.13-1.35-1.13-2.48,0-1.52-.92-5.14-1.74-7.27Zm15.67-.17c-.17,.83-.3,2.22-.3,3.7s.26,2.96,.26,4.31c0,2.39-1.48,1.52-3.26,1.52-1.44,0-3.22,.74-3.22-1.22,0-2.26-.13-6.36-.52-8.1-.3-1.09-.26-2.35,1-2.35,.65,0,1.39,.09,2.13,.09,1.87,0,4.53-1.18,3.92,2.05Zm10.32-2.18c1.52,0,2.18,1.61,1.52,2.87-.26,.52-.44,1.48-.57,2.31-.09,.74-2.44,14.02-14.28,17.98-.78,.26-2.66,.74-2.66-.39,0-.44,.39-1,1.09-1.61,5.79-5.57,6.09-11.8,6.09-15.63,0-.65-.26-2-.52-2.57-.65-1.48-.65-3.61,1.87-3.13,2.22,.44,5.14,.17,7.44,.17Z"/>
  <path class="cls-4" d="M288.22,26.69c-.52,.78-1,3.48-1.44,6.83,3.66,.3,7.79,.39,11.01-.3,2.09-.39,3.96-.04,3.96,1.83,0,.48-.09,1.04-.3,1.61-.48,1.31-1,3-1,4.83,0,1.96-1.04,2.7-3.05,2.13-.91-.22-2.61-.3-4.66-.3s-4.4,.09-6.79,.17c-.09,1.65-.13,3.27-.13,4.66s.04,2.7,.13,3.61c.09,.74,.87,1.52,.87,2.48,0,1.57-2.18,1.87-4.61,1.87-2.22,0-4.31-.17-4.31-1.96,0-.61,.22-1.44,.13-2.18-.52-5.83-3.05-24.38-3.83-25.69-.57-.91-.96-1.92-.96-2.66,0-2.57,4.35-1.57,6.53-1.57,1.74,0,3.57-.09,6.44-.09,3.79,0,3.48,2.44,2,4.7Z"/>
  <path class="cls-3" d="M334.49,48c-.09,1.96,.78,4.05-1.7,3.96-5.66-.26-15.41-.26-19.94,.3-.61,.09-1.13,.13-1.61,.13-2.05,0-2.61-.74-2.61-1.65,0-1.26-1.09-3.09-1.09-3.83,0-1.39,1.92-1.44,2.96-.87,1,.52,10.54,.7,12.41,.39,.74-.13,1.31-.65,1.31-1.26,0-.7-.26-5.4-.44-6.18-.13-.48-.3-.87-1.35-.96-3.66-.22-10.75-.17-14.15,.35-1.57,.22-3.18-.87-3.18-2.44,0-.61,.04-1.22,.04-1.74,0-2.31-.35-3.92-.91-6.14-.61-2.13-.09-4.01,2.52-4.01,.35,0,.74,0,1.13,.09,4.18,.74,21.81,.52,24.86,.09,2.61-.35,4.18,.35,4.01,2.96-.74,9.06-2.09,16.37-2.26,20.81Z"/>
  <path class="cls-4" d="M375.71,49.17c.74,1.18,1.48,3.53-.61,3.83-1.31,.3-3.74,1.13-5.22,1.96-1.39,.78-2.44,.09-2.87-1.7-.13-.44-.35-1.04-.61-1.78-7.36,0-20.81-.04-22.29,.57-1.74,.7-3.7,.26-3.7-1.57,0-.57,.22-1.18,.65-1.7,1.65-1.96,7.49-18.68,7.49-21.16,0-.48-.17-.96-.17-1.35,0-1.31,.78-1.87,2.66-1.87,2.61,0,5.88,.35,8.79,.35,.96,0,1.7-.04,2.39-.04,2.05,0,3.13,1.7,2.26,3.22-.39,.65-2,1.52-2.83,2.66-1.26,1.61-7.97,11.75-8.23,12.15-.39,.65,0,1.13,.78,1.13,1.04,0,5.22-.22,8.32-.39-.52-.91-1.09-1.74-1.65-2.44-1.31-1.7-1.39-3.35,.91-4,1.96-.57,4.7-1.57,6.09-2.35,1.61-.91,2.57,.48,2.96,2.7,.3,1.44,3.48,9.49,4.88,11.8Z"/>
  <g>
    <ellipse class="cls-2" cx="240.2" cy="26.01" rx="3.54" ry="6.17"/>
    <path class="cls-5" d="M240.2,20.35c1.65,0,3.04,2.6,3.04,5.67s-1.39,5.67-3.04,5.67-3.04-2.6-3.04-5.67,1.39-5.67,3.04-5.67m0-.5c-1.96,0-3.54,2.76-3.54,6.17s1.59,6.17,3.54,6.17,3.54-2.76,3.54-6.17-1.59-6.17-3.54-6.17h0Z"/>
    <ellipse class="cls-5" cx="241.48" cy="26.01" rx="2.27" ry="3.07"/>
    <ellipse class="cls-2" cx="242.48" cy="26.01" rx=".61" ry=".83"/>
    <ellipse class="cls-2" cx="242.48" cy="26.01" rx=".61" ry=".83"/>
  </g>
  <g>
    <ellipse class="cls-2" cx="233.49" cy="26.31" rx="3.54" ry="6.17"/>
    <path class="cls-5" d="M233.49,20.64c1.65,0,3.04,2.6,3.04,5.67s-1.39,5.67-3.04,5.67-3.04-2.6-3.04-5.67,1.39-5.67,3.04-5.67m0-.5c-1.96,0-3.54,2.76-3.54,6.17s1.59,6.17,3.54,6.17,3.54-2.76,3.54-6.17-1.59-6.17-3.54-6.17h0Z"/>
    <ellipse class="cls-5" cx="234.76" cy="26.31" rx="2.27" ry="3.07"/>
    <ellipse class="cls-2" cx="235.76" cy="26.31" rx=".61" ry=".83"/>
  </g>
</svg>